<svg xmlns="http://www.w3.org/2000/svg" version="1.0" width="1024.000000pt" height="768.000000pt" viewBox="0 0 1024.000000 768.000000" preserveAspectRatio="xMidYMid meet">
<metadata>
Created by potrace 1.16, written by Peter Selinger 2001-2019
</metadata>
<g transform="translate(0.000000,768.000000) scale(0.100000,-0.100000)" fill="#000000" stroke="none">
<path d="M8140 6071 c-301 -68 -777 -304 -953 -474 -60 -58 -62 -59 -107 -53 -43 6 -143 52 -400 185 -63 33 -145 70 -183 82 -70 22 -96 23 -301 1 l-70 -7 2 -125 c2 -69 7 -246 13 -395 5 -148 9 -600 8 -1003 -1 -610 1 -736 12 -747 16 -14 301 -171 424 -233 175 -87 329 -143 490 -177 126 -27 129 -27 182 -11 29 10 113 46 186 80 277 133 492 216 556 216 l31 0 0 -100 c0 -91 2 -100 21 -111 25 -13 308 5 340 21 16 9 19 22 19 85 l0 74 64 0 c35 -1 73 4 84 10 25 13 32 65 32 238 0 133 0 134 25 143 24 9 38 40 35 76 -4 31 -1 37 13 26 32 -26 135 -46 242 -46 253 0 438 100 528 284 54 110 69 177 74 331 5 118 2 146 -16 214 -32 116 -75 190 -161 276 -157 159 -347 207 -605 151 -49 -11 -91 -18 -93 -17 -2 2 2 177 9 389 13 439 15 428 -63 443 -36 7 -43 13 -50 40 -5 18 -26 47 -49 67 -95 81 -192 100 -339 67z m306 -612 l4 -447 -62 -46 -63 -47 -3 60 -3 61 -142 0 -143 0 4 -705 c4 -592 2 -705 -9 -709 -237 -70 -447 -154 -435 -175 3 -5 -2 -7 -13 -4 -11 3 -30 -6 -47 -22 -16 -15 -23 -24 -16 -20 30 16 6 -7 -59 -54 -38 -28 -74 -49 -80 -46 -13 9 -69 -34 -69 -53 0 -10 -3 -12 -9 -6 -5 5 -12 59 -16 119 -3 61 -8 143 -10 183 -3 39 -2 72 2 72 41 0 134 24 176 45 161 78 248 204 288 415 6 30 13 256 16 503 l5 449 -145 -4 c-80 -2 -149 -7 -154 -11 -4 -5 -10 -214 -13 -465 -6 -495 -7 -498 -65 -597 -21 -37 -88 -95 -110 -95 -3 0 -6 33 -7 73 l-1 72 -6 -65 c-14 -147 -24 209 -25 844 l-1 648 72 68 c143 134 327 236 565 314 206 68 356 95 502 92 l69 -1 3 -446z m-2026 226 c58 -14 148 -39 200 -57 95 -31 349 -151 361 -170 12 -19 19 -208 29 -768 5 -305 11 -599 12 -652 1 -54 -1 -100 -5 -104 -11 -11 -110 17 -149 42 -77 49 -98 137 -98 409 0 99 -3 285 -7 413 l-6 232 -153 0 c-120 0 -153 -3 -157 -14 -9 -23 12 -846 24 -935 29 -216 198 -391 421 -436 42 -8 90 -15 107 -15 l29 0 6 -77 c16 -216 18 -253 10 -253 -19 0 -341 114 -412 146 -135 60 -331 159 -331 167 -2 16 29 5 117 -42 110 -58 122 -63 122 -51 0 6 -9 10 -20 10 -11 0 -20 4 -20 8 0 5 -16 14 -35 22 -19 7 -31 18 -28 23 4 6 0 8 -10 4 -8 -3 -21 0 -27 8 -6 7 -22 16 -36 19 -14 4 -23 10 -20 15 3 4 -5 13 -18 19 l-24 10 -6 814 c-3 447 -9 909 -12 1026 -7 247 -23 225 136 187z m2592 -918 c119 -58 174 -158 172 -312 -1 -119 -27 -190 -98 -261 -74 -73 -141 -98 -271 -98 -55 0 -117 3 -137 7 l-38 8 -1 304 c-1 168 -2 310 -3 317 -1 14 54 48 97 59 18 4 75 7 127 6 81 -2 104 -7 152 -30z m-579 -504 c3 -175 4 -319 3 -321 -2 -1 -19 6 -38 18 l-35 20 -6 197 c-12 339 -12 336 25 372 17 17 35 31 38 31 4 0 10 -143 13 -317z m20 -546 c8 -138 9 -262 1 -269 -3 -3 -13 -4 -24 -1 -19 5 -18 -5 -35 316 l-6 108 29 -21 c28 -21 29 -25 35 -133z"/>
<path d="M5616 5604 c-3 -9 -6 -162 -6 -341 l0 -325 -39 35 c-120 108 -272 141 -445 97 -102 -26 -168 -63 -236 -131 -61 -61 -121 -168 -146 -259 -21 -75 -29 -286 -16 -387 24 -175 106 -345 206 -427 165 -135 431 -152 658 -43 l67 33 7 -43 6 -43 138 0 c122 0 139 2 146 18 4 9 10 425 12 925 l4 907 -175 0 c-150 0 -176 -2 -181 -16z m-77 -866 l66 -33 0 -250 c0 -248 0 -250 -25 -294 -36 -64 -99 -95 -194 -96 -94 0 -152 23 -209 83 -69 74 -91 142 -91 282 -1 124 6 153 57 228 80 120 251 154 396 80z"/>
<path d="M875 5538 c-3 -7 -4 -411 -3 -898 l3 -885 171 -3 c135 -2 174 0 182 11 8 9 13 108 14 308 l3 294 60 7 c42 5 62 3 68 -5 4 -7 32 -55 61 -107 29 -52 70 -124 90 -160 69 -118 172 -305 179 -322 6 -17 28 -18 261 -18 140 0 257 4 260 9 3 5 -25 51 -62 102 -158 219 -384 581 -370 594 2 2 34 17 71 33 80 37 181 128 220 200 82 151 76 404 -14 573 -62 115 -195 210 -359 255 -56 15 -119 18 -448 21 -309 4 -383 2 -387 -9z m745 -335 c95 -43 142 -123 142 -238 -1 -124 -52 -215 -144 -255 -45 -20 -76 -24 -206 -29 -84 -3 -157 -4 -162 -3 -12 4 -14 535 -2 546 4 5 79 6 167 4 133 -4 167 -8 205 -25z"/>
<path d="M2755 5080 c-385 -61 -585 -369 -524 -806 34 -247 190 -430 429 -505 65 -21 95 -24 225 -24 174 0 262 16 374 70 51 24 74 42 81 60 12 32 1 313 -13 322 -5 3 -30 -15 -55 -40 -83 -80 -188 -117 -332 -117 -161 0 -252 47 -307 160 -17 36 -35 80 -38 98 l-7 32 415 0 c369 0 416 2 421 16 3 9 6 60 6 115 0 253 -95 452 -262 547 -102 59 -292 92 -413 72z m190 -298 c22 -11 50 -31 62 -44 27 -29 62 -105 63 -135 l0 -23 -245 0 -244 0 6 33 c15 81 88 165 161 186 54 15 151 7 197 -17z"/>
<path d="M4035 5083 c-123 -9 -339 -70 -392 -111 l-22 -17 44 -120 c28 -77 48 -119 57 -118 7 2 54 17 103 34 75 26 109 32 205 36 106 4 119 3 160 -19 54 -27 90 -90 90 -154 l0 -41 -187 -6 c-144 -4 -206 -10 -266 -26 -218 -57 -329 -185 -329 -376 0 -222 177 -397 417 -412 114 -8 180 9 270 67 41 27 75 54 75 60 0 24 18 7 24 -22 4 -18 14 -43 24 -56 17 -22 22 -22 167 -20 l150 3 -1 461 c-1 319 -6 479 -14 520 -30 143 -109 231 -255 282 -62 21 -196 43 -243 40 -15 -1 -49 -3 -77 -5z m245 -830 c0 -54 -4 -103 -8 -109 -19 -27 -87 -68 -143 -85 -106 -33 -201 -20 -266 36 -32 27 -38 39 -38 72 0 117 116 166 428 182 l27 1 0 -97z"/>
</g>
</svg>